<?xml version="1.0" encoding="utf-8" standalone="no"?>
<!DOCTYPE svg PUBLIC "-//W3C//DTD SVG 1.1//EN"
  "http://www.w3.org/Graphics/SVG/1.1/DTD/svg11.dtd">
<svg xmlns:xlink="http://www.w3.org/1999/xlink" width="432pt" height="252pt" viewBox="0 0 432 252" xmlns="http://www.w3.org/2000/svg" version="1.1">
 <metadata>
  <rdf:RDF xmlns:dc="http://purl.org/dc/elements/1.1/" xmlns:cc="http://creativecommons.org/ns#" xmlns:rdf="http://www.w3.org/1999/02/22-rdf-syntax-ns#">
   <cc:Work>
    <dc:type rdf:resource="http://purl.org/dc/dcmitype/StillImage"/>
    <dc:date>2025-05-18T00:43:49.150976</dc:date>
    <dc:format>image/svg+xml</dc:format>
    <dc:creator>
     <cc:Agent>
      <dc:title>Matplotlib v3.10.1, https://matplotlib.org/</dc:title>
     </cc:Agent>
    </dc:creator>
   </cc:Work>
  </rdf:RDF>
 </metadata>
 <defs>
  <style type="text/css">*{stroke-linejoin: round; stroke-linecap: butt}</style>
 </defs>
 <g id="figure_1">
  <g id="patch_1">
   <path d="M 0 252 
L 432 252 
L 432 0 
L 0 0 
z
" style="fill: #ffffff"/>
  </g>
  <g id="axes_1">
   <g id="patch_2">
    <path d="M 54 215.145 
L 388.8 215.145 
L 388.8 39.375 
L 54 39.375 
z
" style="fill: #ffffff"/>
   </g>
   <g id="patch_3">
    <path d="M 54 223.515 
L 388.8 223.515 
L 388.8 206.775 
L 54 206.775 
z
" clip-path="url(#pe0a1db8be8)" style="fill: url(#hcc1dfdeffb); stroke: #000000; stroke-linejoin: miter"/>
   </g>
   <g id="QuadContourSet_1">
    <path d="M 218.876382 133.772311 
L 220.558794 134.137362 
L 222.241206 134.183866 
L 223.923618 133.909156 
L 225.142155 133.480719 
L 225.60603 133.295886 
L 226.673629 132.647925 
L 227.288442 132.221463 
L 227.727023 131.815131 
L 228.50155 130.982337 
L 228.970854 130.384045 
L 229.118565 130.149543 
L 229.545351 129.316749 
L 229.878145 128.483955 
L 230.117468 127.651161 
L 230.26386 126.818367 
L 230.317869 125.985573 
L 230.280056 125.152779 
L 230.150991 124.319985 
L 229.931251 123.487191 
L 229.621417 122.654397 
L 229.222076 121.821603 
L 228.970854 121.391516 
L 228.674383 120.988809 
L 227.953674 120.156015 
L 227.288442 119.487369 
L 227.069105 119.323221 
L 225.819596 118.490427 
L 225.60603 118.361834 
L 223.923618 117.689181 
L 223.765964 117.657633 
L 222.241206 117.376893 
L 220.558794 117.373045 
L 218.990004 117.657633 
L 218.876382 117.680221 
L 217.19397 118.360208 
L 216.982031 118.490427 
L 215.769422 119.323221 
L 215.511558 119.524459 
L 214.91088 120.156015 
L 214.231165 120.988809 
L 213.829146 121.578304 
L 213.69762 121.821603 
L 213.333918 122.654397 
L 213.05987 123.487191 
L 212.874968 124.319985 
L 212.778738 125.152779 
L 212.770735 125.985573 
L 212.850549 126.818367 
L 213.017807 127.651161 
L 213.27217 128.483955 
L 213.613337 129.316749 
L 213.829146 129.734526 
L 214.092317 130.149543 
L 214.730465 130.982337 
L 215.475203 131.815131 
L 215.511558 131.850299 
L 216.585721 132.647925 
L 217.19397 133.046992 
L 218.151866 133.480719 
z
" clip-path="url(#pe0a1db8be8)" style="fill: #424086"/>
    <path d="M 218.876382 138.523536 
L 220.558794 138.74049 
L 222.241206 138.771438 
L 223.923618 138.615886 
L 224.607563 138.477482 
L 225.60603 138.258313 
L 227.288442 137.693755 
L 227.397517 137.644688 
L 228.970854 136.877955 
L 229.079653 136.811894 
L 230.340886 135.979101 
L 230.653266 135.75395 
L 231.360207 135.146307 
L 232.245872 134.313513 
L 232.335678 134.21986 
L 232.948019 133.480719 
L 233.568792 132.647925 
L 234.01809 131.96971 
L 234.108494 131.815131 
L 234.532614 130.982337 
L 234.897747 130.149543 
L 235.204171 129.316749 
L 235.452164 128.483955 
L 235.642007 127.651161 
L 235.700503 127.28022 
L 235.765853 126.818367 
L 235.832012 125.985573 
L 235.84719 125.152779 
L 235.811621 124.319985 
L 235.725534 123.487191 
L 235.700503 123.333278 
L 235.575363 122.654397 
L 235.365851 121.821603 
L 235.100367 120.988809 
L 234.77917 120.156015 
L 234.402519 119.323221 
L 234.01809 118.581221 
L 233.963965 118.490427 
L 233.408433 117.657633 
L 232.790648 116.824839 
L 232.335678 116.265993 
L 232.073919 115.992045 
L 231.210747 115.159251 
L 230.653266 114.660799 
L 230.202334 114.326457 
L 229.000084 113.493663 
L 228.970854 113.474598 
L 227.407017 112.660869 
L 227.288442 112.602487 
L 225.60603 111.980133 
L 224.994551 111.828075 
L 223.923618 111.573871 
L 222.241206 111.366199 
L 220.558794 111.349355 
L 218.876382 111.524509 
L 217.496885 111.828075 
L 217.19397 111.898283 
L 215.511558 112.497321 
L 215.172877 112.660869 
L 213.829146 113.351135 
L 213.61027 113.493663 
L 212.415315 114.326457 
L 212.146734 114.528107 
L 211.454278 115.159251 
L 210.616256 115.992045 
L 210.464322 116.15697 
L 209.942318 116.824839 
L 209.355856 117.657633 
L 208.83488 118.490427 
L 208.78191 118.586271 
L 208.428801 119.323221 
L 208.085943 120.156015 
L 207.799506 120.988809 
L 207.569252 121.821603 
L 207.394952 122.654397 
L 207.276392 123.487191 
L 207.213369 124.319985 
L 207.205694 125.152779 
L 207.253192 125.985573 
L 207.355701 126.818367 
L 207.513073 127.651161 
L 207.725178 128.483955 
L 207.991898 129.316749 
L 208.313136 130.149543 
L 208.688808 130.982337 
L 208.78191 131.161049 
L 209.165532 131.815131 
L 209.716916 132.647925 
L 210.330011 133.480719 
L 210.464322 133.644964 
L 211.091989 134.313513 
L 211.947157 135.146307 
L 212.146734 135.324029 
L 213.014175 135.979101 
L 213.829146 136.546953 
L 214.295059 136.811894 
L 215.511558 137.450568 
L 215.992386 137.644688 
L 217.19397 138.092878 
L 218.683477 138.477482 
z
M 218.151866 133.480719 
L 217.19397 133.046992 
L 216.585721 132.647925 
L 215.511558 131.850299 
L 215.475203 131.815131 
L 214.730465 130.982337 
L 214.092317 130.149543 
L 213.829146 129.734526 
L 213.613337 129.316749 
L 213.27217 128.483955 
L 213.017807 127.651161 
L 212.850549 126.818367 
L 212.770735 125.985573 
L 212.778738 125.152779 
L 212.874968 124.319985 
L 213.05987 123.487191 
L 213.333918 122.654397 
L 213.69762 121.821603 
L 213.829146 121.578304 
L 214.231165 120.988809 
L 214.91088 120.156015 
L 215.511558 119.524459 
L 215.769422 119.323221 
L 216.982031 118.490427 
L 217.19397 118.360208 
L 218.876382 117.680221 
L 218.990004 117.657633 
L 220.558794 117.373045 
L 222.241206 117.376893 
L 223.765964 117.657633 
L 223.923618 117.689181 
L 225.60603 118.361834 
L 225.819596 118.490427 
L 227.069105 119.323221 
L 227.288442 119.487369 
L 227.953674 120.156015 
L 228.674383 120.988809 
L 228.970854 121.391516 
L 229.222076 121.821603 
L 229.621417 122.654397 
L 229.931251 123.487191 
L 230.150991 124.319985 
L 230.280056 125.152779 
L 230.317869 125.985573 
L 230.26386 126.818367 
L 230.117468 127.651161 
L 229.878145 128.483955 
L 229.545351 129.316749 
L 229.118565 130.149543 
L 228.970854 130.384045 
L 228.50155 130.982337 
L 227.727023 131.815131 
L 227.288442 132.221463 
L 226.673629 132.647925 
L 225.60603 133.295886 
L 225.142155 133.480719 
L 223.923618 133.909156 
L 222.241206 134.183866 
L 220.558794 134.137362 
L 218.876382 133.772311 
z
" clip-path="url(#pe0a1db8be8)" style="fill: #3fbc73"/>
   </g>
   <g id="PathCollection_1">
    <defs>
     <path id="maaaf962027" d="M 0 1.5 
C 0.397805 1.5 0.77937 1.341951 1.06066 1.06066 
C 1.341951 0.77937 1.5 0.397805 1.5 0 
C 1.5 -0.397805 1.341951 -0.77937 1.06066 -1.06066 
C 0.77937 -1.341951 0.397805 -1.5 0 -1.5 
C -0.397805 -1.5 -0.77937 -1.341951 -1.06066 -1.06066 
C -1.341951 -0.77937 -1.5 -0.397805 -1.5 0 
C -1.5 0.397805 -1.341951 0.77937 -1.06066 1.06066 
C -0.77937 1.341951 -0.397805 1.5 0 1.5 
z
" style="stroke: #ff0000"/>
    </defs>
    <g clip-path="url(#pe0a1db8be8)">
     <use xlink:href="#maaaf962027" x="221.4" y="123.075" style="fill: #ff0000; stroke: #ff0000"/>
    </g>
   </g>
   <g id="PathCollection_2">
    <defs>
     <path id="m3b61ea2619" d="M 0 1.5 
C 0.397805 1.5 0.77937 1.341951 1.06066 1.06066 
C 1.341951 0.77937 1.5 0.397805 1.5 0 
C 1.5 -0.397805 1.341951 -0.77937 1.06066 -1.06066 
C 0.77937 -1.341951 0.397805 -1.5 0 -1.5 
C -0.397805 -1.5 -0.77937 -1.341951 -1.06066 -1.06066 
C -1.341951 -0.77937 -1.5 -0.397805 -1.5 0 
C -1.5 0.397805 -1.341951 0.77937 -1.06066 1.06066 
C -0.77937 1.341951 -0.397805 1.5 0 1.5 
z
" style="stroke: #00bfbf"/>
    </defs>
    <g clip-path="url(#pe0a1db8be8)">
     <use xlink:href="#m3b61ea2619" x="221.539196" y="126.203502" style="fill: #00bfbf; stroke: #00bfbf"/>
    </g>
   </g>
   <g id="matplotlib.axis_1">
    <g id="xtick_1">
     <g id="line2d_1">
      <defs>
       <path id="m2d46a44ffe" d="M 0 0 
L 0 3.5 
" style="stroke: #000000; stroke-width: 0.8"/>
      </defs>
      <g>
       <use xlink:href="#m2d46a44ffe" x="54" y="215.145" style="stroke: #000000; stroke-width: 0.8"/>
      </g>
     </g>
     <g id="text_1">
      <!-- −10.0 -->
      <g transform="translate(38.677344 229.743437) scale(0.1 -0.1)">
       <defs>
        <path id="DejaVuSans-2212" d="M 678 2272 
L 4684 2272 
L 4684 1741 
L 678 1741 
L 678 2272 
z
" transform="scale(0.015625)"/>
        <path id="DejaVuSans-31" d="M 794 531 
L 1825 531 
L 1825 4091 
L 703 3866 
L 703 4441 
L 1819 4666 
L 2450 4666 
L 2450 531 
L 3481 531 
L 3481 0 
L 794 0 
L 794 531 
z
" transform="scale(0.015625)"/>
        <path id="DejaVuSans-30" d="M 2034 4250 
Q 1547 4250 1301 3770 
Q 1056 3291 1056 2328 
Q 1056 1369 1301 889 
Q 1547 409 2034 409 
Q 2525 409 2770 889 
Q 3016 1369 3016 2328 
Q 3016 3291 2770 3770 
Q 2525 4250 2034 4250 
z
M 2034 4750 
Q 2819 4750 3233 4129 
Q 3647 3509 3647 2328 
Q 3647 1150 3233 529 
Q 2819 -91 2034 -91 
Q 1250 -91 836 529 
Q 422 1150 422 2328 
Q 422 3509 836 4129 
Q 1250 4750 2034 4750 
z
" transform="scale(0.015625)"/>
        <path id="DejaVuSans-2e" d="M 684 794 
L 1344 794 
L 1344 0 
L 684 0 
L 684 794 
z
" transform="scale(0.015625)"/>
       </defs>
       <use xlink:href="#DejaVuSans-2212"/>
       <use xlink:href="#DejaVuSans-31" transform="translate(83.789062 0)"/>
       <use xlink:href="#DejaVuSans-30" transform="translate(147.412109 0)"/>
       <use xlink:href="#DejaVuSans-2e" transform="translate(211.035156 0)"/>
       <use xlink:href="#DejaVuSans-30" transform="translate(242.822266 0)"/>
      </g>
     </g>
    </g>
    <g id="xtick_2">
     <g id="line2d_2">
      <g>
       <use xlink:href="#m2d46a44ffe" x="95.85" y="215.145" style="stroke: #000000; stroke-width: 0.8"/>
      </g>
     </g>
     <g id="text_2">
      <!-- −7.5 -->
      <g transform="translate(83.708594 229.743437) scale(0.1 -0.1)">
       <defs>
        <path id="DejaVuSans-37" d="M 525 4666 
L 3525 4666 
L 3525 4397 
L 1831 0 
L 1172 0 
L 2766 4134 
L 525 4134 
L 525 4666 
z
" transform="scale(0.015625)"/>
        <path id="DejaVuSans-35" d="M 691 4666 
L 3169 4666 
L 3169 4134 
L 1269 4134 
L 1269 2991 
Q 1406 3038 1543 3061 
Q 1681 3084 1819 3084 
Q 2600 3084 3056 2656 
Q 3513 2228 3513 1497 
Q 3513 744 3044 326 
Q 2575 -91 1722 -91 
Q 1428 -91 1123 -41 
Q 819 9 494 109 
L 494 744 
Q 775 591 1075 516 
Q 1375 441 1709 441 
Q 2250 441 2565 725 
Q 2881 1009 2881 1497 
Q 2881 1984 2565 2268 
Q 2250 2553 1709 2553 
Q 1456 2553 1204 2497 
Q 953 2441 691 2322 
L 691 4666 
z
" transform="scale(0.015625)"/>
       </defs>
       <use xlink:href="#DejaVuSans-2212"/>
       <use xlink:href="#DejaVuSans-37" transform="translate(83.789062 0)"/>
       <use xlink:href="#DejaVuSans-2e" transform="translate(147.412109 0)"/>
       <use xlink:href="#DejaVuSans-35" transform="translate(179.199219 0)"/>
      </g>
     </g>
    </g>
    <g id="xtick_3">
     <g id="line2d_3">
      <g>
       <use xlink:href="#m2d46a44ffe" x="137.7" y="215.145" style="stroke: #000000; stroke-width: 0.8"/>
      </g>
     </g>
     <g id="text_3">
      <!-- −5.0 -->
      <g transform="translate(125.558594 229.743437) scale(0.1 -0.1)">
       <use xlink:href="#DejaVuSans-2212"/>
       <use xlink:href="#DejaVuSans-35" transform="translate(83.789062 0)"/>
       <use xlink:href="#DejaVuSans-2e" transform="translate(147.412109 0)"/>
       <use xlink:href="#DejaVuSans-30" transform="translate(179.199219 0)"/>
      </g>
     </g>
    </g>
    <g id="xtick_4">
     <g id="line2d_4">
      <g>
       <use xlink:href="#m2d46a44ffe" x="179.55" y="215.145" style="stroke: #000000; stroke-width: 0.8"/>
      </g>
     </g>
     <g id="text_4">
      <!-- −2.5 -->
      <g transform="translate(167.408594 229.743437) scale(0.1 -0.1)">
       <defs>
        <path id="DejaVuSans-32" d="M 1228 531 
L 3431 531 
L 3431 0 
L 469 0 
L 469 531 
Q 828 903 1448 1529 
Q 2069 2156 2228 2338 
Q 2531 2678 2651 2914 
Q 2772 3150 2772 3378 
Q 2772 3750 2511 3984 
Q 2250 4219 1831 4219 
Q 1534 4219 1204 4116 
Q 875 4013 500 3803 
L 500 4441 
Q 881 4594 1212 4672 
Q 1544 4750 1819 4750 
Q 2544 4750 2975 4387 
Q 3406 4025 3406 3419 
Q 3406 3131 3298 2873 
Q 3191 2616 2906 2266 
Q 2828 2175 2409 1742 
Q 1991 1309 1228 531 
z
" transform="scale(0.015625)"/>
       </defs>
       <use xlink:href="#DejaVuSans-2212"/>
       <use xlink:href="#DejaVuSans-32" transform="translate(83.789062 0)"/>
       <use xlink:href="#DejaVuSans-2e" transform="translate(147.412109 0)"/>
       <use xlink:href="#DejaVuSans-35" transform="translate(179.199219 0)"/>
      </g>
     </g>
    </g>
    <g id="xtick_5">
     <g id="line2d_5">
      <g>
       <use xlink:href="#m2d46a44ffe" x="221.4" y="215.145" style="stroke: #000000; stroke-width: 0.8"/>
      </g>
     </g>
     <g id="text_5">
      <!-- 0.0 -->
      <g transform="translate(213.448438 229.743437) scale(0.1 -0.1)">
       <use xlink:href="#DejaVuSans-30"/>
       <use xlink:href="#DejaVuSans-2e" transform="translate(63.623047 0)"/>
       <use xlink:href="#DejaVuSans-30" transform="translate(95.410156 0)"/>
      </g>
     </g>
    </g>
    <g id="xtick_6">
     <g id="line2d_6">
      <g>
       <use xlink:href="#m2d46a44ffe" x="263.25" y="215.145" style="stroke: #000000; stroke-width: 0.8"/>
      </g>
     </g>
     <g id="text_6">
      <!-- 2.5 -->
      <g transform="translate(255.298438 229.743437) scale(0.1 -0.1)">
       <use xlink:href="#DejaVuSans-32"/>
       <use xlink:href="#DejaVuSans-2e" transform="translate(63.623047 0)"/>
       <use xlink:href="#DejaVuSans-35" transform="translate(95.410156 0)"/>
      </g>
     </g>
    </g>
    <g id="xtick_7">
     <g id="line2d_7">
      <g>
       <use xlink:href="#m2d46a44ffe" x="305.1" y="215.145" style="stroke: #000000; stroke-width: 0.8"/>
      </g>
     </g>
     <g id="text_7">
      <!-- 5.0 -->
      <g transform="translate(297.148438 229.743437) scale(0.1 -0.1)">
       <use xlink:href="#DejaVuSans-35"/>
       <use xlink:href="#DejaVuSans-2e" transform="translate(63.623047 0)"/>
       <use xlink:href="#DejaVuSans-30" transform="translate(95.410156 0)"/>
      </g>
     </g>
    </g>
    <g id="xtick_8">
     <g id="line2d_8">
      <g>
       <use xlink:href="#m2d46a44ffe" x="346.95" y="215.145" style="stroke: #000000; stroke-width: 0.8"/>
      </g>
     </g>
     <g id="text_8">
      <!-- 7.5 -->
      <g transform="translate(338.998438 229.743437) scale(0.1 -0.1)">
       <use xlink:href="#DejaVuSans-37"/>
       <use xlink:href="#DejaVuSans-2e" transform="translate(63.623047 0)"/>
       <use xlink:href="#DejaVuSans-35" transform="translate(95.410156 0)"/>
      </g>
     </g>
    </g>
    <g id="xtick_9">
     <g id="line2d_9">
      <g>
       <use xlink:href="#m2d46a44ffe" x="388.8" y="215.145" style="stroke: #000000; stroke-width: 0.8"/>
      </g>
     </g>
     <g id="text_9">
      <!-- 10.0 -->
      <g transform="translate(377.667188 229.743437) scale(0.1 -0.1)">
       <use xlink:href="#DejaVuSans-31"/>
       <use xlink:href="#DejaVuSans-30" transform="translate(63.623047 0)"/>
       <use xlink:href="#DejaVuSans-2e" transform="translate(127.246094 0)"/>
       <use xlink:href="#DejaVuSans-30" transform="translate(159.033203 0)"/>
      </g>
     </g>
    </g>
    <g id="text_10">
     <!-- Shoreline $x_0$ -->
     <g transform="translate(190.9 243.421562) scale(0.1 -0.1)">
      <defs>
       <path id="DejaVuSans-53" d="M 3425 4513 
L 3425 3897 
Q 3066 4069 2747 4153 
Q 2428 4238 2131 4238 
Q 1616 4238 1336 4038 
Q 1056 3838 1056 3469 
Q 1056 3159 1242 3001 
Q 1428 2844 1947 2747 
L 2328 2669 
Q 3034 2534 3370 2195 
Q 3706 1856 3706 1288 
Q 3706 609 3251 259 
Q 2797 -91 1919 -91 
Q 1588 -91 1214 -16 
Q 841 59 441 206 
L 441 856 
Q 825 641 1194 531 
Q 1563 422 1919 422 
Q 2459 422 2753 634 
Q 3047 847 3047 1241 
Q 3047 1584 2836 1778 
Q 2625 1972 2144 2069 
L 1759 2144 
Q 1053 2284 737 2584 
Q 422 2884 422 3419 
Q 422 4038 858 4394 
Q 1294 4750 2059 4750 
Q 2388 4750 2728 4690 
Q 3069 4631 3425 4513 
z
" transform="scale(0.015625)"/>
       <path id="DejaVuSans-68" d="M 3513 2113 
L 3513 0 
L 2938 0 
L 2938 2094 
Q 2938 2591 2744 2837 
Q 2550 3084 2163 3084 
Q 1697 3084 1428 2787 
Q 1159 2491 1159 1978 
L 1159 0 
L 581 0 
L 581 4863 
L 1159 4863 
L 1159 2956 
Q 1366 3272 1645 3428 
Q 1925 3584 2291 3584 
Q 2894 3584 3203 3211 
Q 3513 2838 3513 2113 
z
" transform="scale(0.015625)"/>
       <path id="DejaVuSans-6f" d="M 1959 3097 
Q 1497 3097 1228 2736 
Q 959 2375 959 1747 
Q 959 1119 1226 758 
Q 1494 397 1959 397 
Q 2419 397 2687 759 
Q 2956 1122 2956 1747 
Q 2956 2369 2687 2733 
Q 2419 3097 1959 3097 
z
M 1959 3584 
Q 2709 3584 3137 3096 
Q 3566 2609 3566 1747 
Q 3566 888 3137 398 
Q 2709 -91 1959 -91 
Q 1206 -91 779 398 
Q 353 888 353 1747 
Q 353 2609 779 3096 
Q 1206 3584 1959 3584 
z
" transform="scale(0.015625)"/>
       <path id="DejaVuSans-72" d="M 2631 2963 
Q 2534 3019 2420 3045 
Q 2306 3072 2169 3072 
Q 1681 3072 1420 2755 
Q 1159 2438 1159 1844 
L 1159 0 
L 581 0 
L 581 3500 
L 1159 3500 
L 1159 2956 
Q 1341 3275 1631 3429 
Q 1922 3584 2338 3584 
Q 2397 3584 2469 3576 
Q 2541 3569 2628 3553 
L 2631 2963 
z
" transform="scale(0.015625)"/>
       <path id="DejaVuSans-65" d="M 3597 1894 
L 3597 1613 
L 953 1613 
Q 991 1019 1311 708 
Q 1631 397 2203 397 
Q 2534 397 2845 478 
Q 3156 559 3463 722 
L 3463 178 
Q 3153 47 2828 -22 
Q 2503 -91 2169 -91 
Q 1331 -91 842 396 
Q 353 884 353 1716 
Q 353 2575 817 3079 
Q 1281 3584 2069 3584 
Q 2775 3584 3186 3129 
Q 3597 2675 3597 1894 
z
M 3022 2063 
Q 3016 2534 2758 2815 
Q 2500 3097 2075 3097 
Q 1594 3097 1305 2825 
Q 1016 2553 972 2059 
L 3022 2063 
z
" transform="scale(0.015625)"/>
       <path id="DejaVuSans-6c" d="M 603 4863 
L 1178 4863 
L 1178 0 
L 603 0 
L 603 4863 
z
" transform="scale(0.015625)"/>
       <path id="DejaVuSans-69" d="M 603 3500 
L 1178 3500 
L 1178 0 
L 603 0 
L 603 3500 
z
M 603 4863 
L 1178 4863 
L 1178 4134 
L 603 4134 
L 603 4863 
z
" transform="scale(0.015625)"/>
       <path id="DejaVuSans-6e" d="M 3513 2113 
L 3513 0 
L 2938 0 
L 2938 2094 
Q 2938 2591 2744 2837 
Q 2550 3084 2163 3084 
Q 1697 3084 1428 2787 
Q 1159 2491 1159 1978 
L 1159 0 
L 581 0 
L 581 3500 
L 1159 3500 
L 1159 2956 
Q 1366 3272 1645 3428 
Q 1925 3584 2291 3584 
Q 2894 3584 3203 3211 
Q 3513 2838 3513 2113 
z
" transform="scale(0.015625)"/>
       <path id="DejaVuSans-20" transform="scale(0.015625)"/>
       <path id="DejaVuSans-Oblique-78" d="M 3841 3500 
L 2234 1784 
L 3219 0 
L 2559 0 
L 1819 1388 
L 531 0 
L -166 0 
L 1556 1844 
L 641 3500 
L 1300 3500 
L 1972 2234 
L 3144 3500 
L 3841 3500 
z
" transform="scale(0.015625)"/>
      </defs>
      <use xlink:href="#DejaVuSans-53" transform="translate(0 0.015625)"/>
      <use xlink:href="#DejaVuSans-68" transform="translate(63.476562 0.015625)"/>
      <use xlink:href="#DejaVuSans-6f" transform="translate(126.855469 0.015625)"/>
      <use xlink:href="#DejaVuSans-72" transform="translate(188.037109 0.015625)"/>
      <use xlink:href="#DejaVuSans-65" transform="translate(229.150391 0.015625)"/>
      <use xlink:href="#DejaVuSans-6c" transform="translate(290.673828 0.015625)"/>
      <use xlink:href="#DejaVuSans-69" transform="translate(318.457031 0.015625)"/>
      <use xlink:href="#DejaVuSans-6e" transform="translate(346.240234 0.015625)"/>
      <use xlink:href="#DejaVuSans-65" transform="translate(409.619141 0.015625)"/>
      <use xlink:href="#DejaVuSans-20" transform="translate(471.142578 0.015625)"/>
      <use xlink:href="#DejaVuSans-Oblique-78" transform="translate(502.929688 0.015625)"/>
      <use xlink:href="#DejaVuSans-30" transform="translate(562.109375 -16.390625) scale(0.7)"/>
     </g>
    </g>
   </g>
   <g id="matplotlib.axis_2">
    <g id="ytick_1">
     <g id="line2d_10">
      <defs>
       <path id="m74561e899e" d="M 0 0 
L -3.5 0 
" style="stroke: #000000; stroke-width: 0.8"/>
      </defs>
      <g>
       <use xlink:href="#m74561e899e" x="54" y="206.775" style="stroke: #000000; stroke-width: 0.8"/>
      </g>
     </g>
     <g id="text_11">
      <!-- 0 -->
      <g transform="translate(40.6375 210.574219) scale(0.1 -0.1)">
       <use xlink:href="#DejaVuSans-30"/>
      </g>
     </g>
    </g>
    <g id="ytick_2">
     <g id="line2d_11">
      <g>
       <use xlink:href="#m74561e899e" x="54" y="173.295" style="stroke: #000000; stroke-width: 0.8"/>
      </g>
     </g>
     <g id="text_12">
      <!-- 2 -->
      <g transform="translate(40.6375 177.094219) scale(0.1 -0.1)">
       <use xlink:href="#DejaVuSans-32"/>
      </g>
     </g>
    </g>
    <g id="ytick_3">
     <g id="line2d_12">
      <g>
       <use xlink:href="#m74561e899e" x="54" y="139.815" style="stroke: #000000; stroke-width: 0.8"/>
      </g>
     </g>
     <g id="text_13">
      <!-- 4 -->
      <g transform="translate(40.6375 143.614219) scale(0.1 -0.1)">
       <defs>
        <path id="DejaVuSans-34" d="M 2419 4116 
L 825 1625 
L 2419 1625 
L 2419 4116 
z
M 2253 4666 
L 3047 4666 
L 3047 1625 
L 3713 1625 
L 3713 1100 
L 3047 1100 
L 3047 0 
L 2419 0 
L 2419 1100 
L 313 1100 
L 313 1709 
L 2253 4666 
z
" transform="scale(0.015625)"/>
       </defs>
       <use xlink:href="#DejaVuSans-34"/>
      </g>
     </g>
    </g>
    <g id="ytick_4">
     <g id="line2d_13">
      <g>
       <use xlink:href="#m74561e899e" x="54" y="106.335" style="stroke: #000000; stroke-width: 0.8"/>
      </g>
     </g>
     <g id="text_14">
      <!-- 6 -->
      <g transform="translate(40.6375 110.134219) scale(0.1 -0.1)">
       <defs>
        <path id="DejaVuSans-36" d="M 2113 2584 
Q 1688 2584 1439 2293 
Q 1191 2003 1191 1497 
Q 1191 994 1439 701 
Q 1688 409 2113 409 
Q 2538 409 2786 701 
Q 3034 994 3034 1497 
Q 3034 2003 2786 2293 
Q 2538 2584 2113 2584 
z
M 3366 4563 
L 3366 3988 
Q 3128 4100 2886 4159 
Q 2644 4219 2406 4219 
Q 1781 4219 1451 3797 
Q 1122 3375 1075 2522 
Q 1259 2794 1537 2939 
Q 1816 3084 2150 3084 
Q 2853 3084 3261 2657 
Q 3669 2231 3669 1497 
Q 3669 778 3244 343 
Q 2819 -91 2113 -91 
Q 1303 -91 875 529 
Q 447 1150 447 2328 
Q 447 3434 972 4092 
Q 1497 4750 2381 4750 
Q 2619 4750 2861 4703 
Q 3103 4656 3366 4563 
z
" transform="scale(0.015625)"/>
       </defs>
       <use xlink:href="#DejaVuSans-36"/>
      </g>
     </g>
    </g>
    <g id="ytick_5">
     <g id="line2d_14">
      <g>
       <use xlink:href="#m74561e899e" x="54" y="72.855" style="stroke: #000000; stroke-width: 0.8"/>
      </g>
     </g>
     <g id="text_15">
      <!-- 8 -->
      <g transform="translate(40.6375 76.654219) scale(0.1 -0.1)">
       <defs>
        <path id="DejaVuSans-38" d="M 2034 2216 
Q 1584 2216 1326 1975 
Q 1069 1734 1069 1313 
Q 1069 891 1326 650 
Q 1584 409 2034 409 
Q 2484 409 2743 651 
Q 3003 894 3003 1313 
Q 3003 1734 2745 1975 
Q 2488 2216 2034 2216 
z
M 1403 2484 
Q 997 2584 770 2862 
Q 544 3141 544 3541 
Q 544 4100 942 4425 
Q 1341 4750 2034 4750 
Q 2731 4750 3128 4425 
Q 3525 4100 3525 3541 
Q 3525 3141 3298 2862 
Q 3072 2584 2669 2484 
Q 3125 2378 3379 2068 
Q 3634 1759 3634 1313 
Q 3634 634 3220 271 
Q 2806 -91 2034 -91 
Q 1263 -91 848 271 
Q 434 634 434 1313 
Q 434 1759 690 2068 
Q 947 2378 1403 2484 
z
M 1172 3481 
Q 1172 3119 1398 2916 
Q 1625 2713 2034 2713 
Q 2441 2713 2670 2916 
Q 2900 3119 2900 3481 
Q 2900 3844 2670 4047 
Q 2441 4250 2034 4250 
Q 1625 4250 1398 4047 
Q 1172 3844 1172 3481 
z
" transform="scale(0.015625)"/>
       </defs>
       <use xlink:href="#DejaVuSans-38"/>
      </g>
     </g>
    </g>
    <g id="ytick_6">
     <g id="line2d_15">
      <g>
       <use xlink:href="#m74561e899e" x="54" y="39.375" style="stroke: #000000; stroke-width: 0.8"/>
      </g>
     </g>
     <g id="text_16">
      <!-- 10 -->
      <g transform="translate(34.275 43.174219) scale(0.1 -0.1)">
       <use xlink:href="#DejaVuSans-31"/>
       <use xlink:href="#DejaVuSans-30" transform="translate(63.623047 0)"/>
      </g>
     </g>
    </g>
    <g id="text_17">
     <!-- Distance from shore $y$ -->
     <g transform="translate(28.175 182.61) rotate(-90) scale(0.1 -0.1)">
      <defs>
       <path id="DejaVuSans-44" d="M 1259 4147 
L 1259 519 
L 2022 519 
Q 2988 519 3436 956 
Q 3884 1394 3884 2338 
Q 3884 3275 3436 3711 
Q 2988 4147 2022 4147 
L 1259 4147 
z
M 628 4666 
L 1925 4666 
Q 3281 4666 3915 4102 
Q 4550 3538 4550 2338 
Q 4550 1131 3912 565 
Q 3275 0 1925 0 
L 628 0 
L 628 4666 
z
" transform="scale(0.015625)"/>
       <path id="DejaVuSans-73" d="M 2834 3397 
L 2834 2853 
Q 2591 2978 2328 3040 
Q 2066 3103 1784 3103 
Q 1356 3103 1142 2972 
Q 928 2841 928 2578 
Q 928 2378 1081 2264 
Q 1234 2150 1697 2047 
L 1894 2003 
Q 2506 1872 2764 1633 
Q 3022 1394 3022 966 
Q 3022 478 2636 193 
Q 2250 -91 1575 -91 
Q 1294 -91 989 -36 
Q 684 19 347 128 
L 347 722 
Q 666 556 975 473 
Q 1284 391 1588 391 
Q 1994 391 2212 530 
Q 2431 669 2431 922 
Q 2431 1156 2273 1281 
Q 2116 1406 1581 1522 
L 1381 1569 
Q 847 1681 609 1914 
Q 372 2147 372 2553 
Q 372 3047 722 3315 
Q 1072 3584 1716 3584 
Q 2034 3584 2315 3537 
Q 2597 3491 2834 3397 
z
" transform="scale(0.015625)"/>
       <path id="DejaVuSans-74" d="M 1172 4494 
L 1172 3500 
L 2356 3500 
L 2356 3053 
L 1172 3053 
L 1172 1153 
Q 1172 725 1289 603 
Q 1406 481 1766 481 
L 2356 481 
L 2356 0 
L 1766 0 
Q 1100 0 847 248 
Q 594 497 594 1153 
L 594 3053 
L 172 3053 
L 172 3500 
L 594 3500 
L 594 4494 
L 1172 4494 
z
" transform="scale(0.015625)"/>
       <path id="DejaVuSans-61" d="M 2194 1759 
Q 1497 1759 1228 1600 
Q 959 1441 959 1056 
Q 959 750 1161 570 
Q 1363 391 1709 391 
Q 2188 391 2477 730 
Q 2766 1069 2766 1631 
L 2766 1759 
L 2194 1759 
z
M 3341 1997 
L 3341 0 
L 2766 0 
L 2766 531 
Q 2569 213 2275 61 
Q 1981 -91 1556 -91 
Q 1019 -91 701 211 
Q 384 513 384 1019 
Q 384 1609 779 1909 
Q 1175 2209 1959 2209 
L 2766 2209 
L 2766 2266 
Q 2766 2663 2505 2880 
Q 2244 3097 1772 3097 
Q 1472 3097 1187 3025 
Q 903 2953 641 2809 
L 641 3341 
Q 956 3463 1253 3523 
Q 1550 3584 1831 3584 
Q 2591 3584 2966 3190 
Q 3341 2797 3341 1997 
z
" transform="scale(0.015625)"/>
       <path id="DejaVuSans-63" d="M 3122 3366 
L 3122 2828 
Q 2878 2963 2633 3030 
Q 2388 3097 2138 3097 
Q 1578 3097 1268 2742 
Q 959 2388 959 1747 
Q 959 1106 1268 751 
Q 1578 397 2138 397 
Q 2388 397 2633 464 
Q 2878 531 3122 666 
L 3122 134 
Q 2881 22 2623 -34 
Q 2366 -91 2075 -91 
Q 1284 -91 818 406 
Q 353 903 353 1747 
Q 353 2603 823 3093 
Q 1294 3584 2113 3584 
Q 2378 3584 2631 3529 
Q 2884 3475 3122 3366 
z
" transform="scale(0.015625)"/>
       <path id="DejaVuSans-66" d="M 2375 4863 
L 2375 4384 
L 1825 4384 
Q 1516 4384 1395 4259 
Q 1275 4134 1275 3809 
L 1275 3500 
L 2222 3500 
L 2222 3053 
L 1275 3053 
L 1275 0 
L 697 0 
L 697 3053 
L 147 3053 
L 147 3500 
L 697 3500 
L 697 3744 
Q 697 4328 969 4595 
Q 1241 4863 1831 4863 
L 2375 4863 
z
" transform="scale(0.015625)"/>
       <path id="DejaVuSans-6d" d="M 3328 2828 
Q 3544 3216 3844 3400 
Q 4144 3584 4550 3584 
Q 5097 3584 5394 3201 
Q 5691 2819 5691 2113 
L 5691 0 
L 5113 0 
L 5113 2094 
Q 5113 2597 4934 2840 
Q 4756 3084 4391 3084 
Q 3944 3084 3684 2787 
Q 3425 2491 3425 1978 
L 3425 0 
L 2847 0 
L 2847 2094 
Q 2847 2600 2669 2842 
Q 2491 3084 2119 3084 
Q 1678 3084 1418 2786 
Q 1159 2488 1159 1978 
L 1159 0 
L 581 0 
L 581 3500 
L 1159 3500 
L 1159 2956 
Q 1356 3278 1631 3431 
Q 1906 3584 2284 3584 
Q 2666 3584 2933 3390 
Q 3200 3197 3328 2828 
z
" transform="scale(0.015625)"/>
       <path id="DejaVuSans-Oblique-79" d="M 1588 -325 
Q 1188 -997 936 -1164 
Q 684 -1331 294 -1331 
L -159 -1331 
L -63 -850 
L 269 -850 
Q 509 -850 678 -719 
Q 847 -588 1056 -206 
L 1234 128 
L 459 3500 
L 1069 3500 
L 1650 819 
L 3256 3500 
L 3859 3500 
L 1588 -325 
z
" transform="scale(0.015625)"/>
      </defs>
      <use xlink:href="#DejaVuSans-44" transform="translate(0 0.015625)"/>
      <use xlink:href="#DejaVuSans-69" transform="translate(77.001953 0.015625)"/>
      <use xlink:href="#DejaVuSans-73" transform="translate(104.785156 0.015625)"/>
      <use xlink:href="#DejaVuSans-74" transform="translate(156.884766 0.015625)"/>
      <use xlink:href="#DejaVuSans-61" transform="translate(196.09375 0.015625)"/>
      <use xlink:href="#DejaVuSans-6e" transform="translate(257.373047 0.015625)"/>
      <use xlink:href="#DejaVuSans-63" transform="translate(320.751953 0.015625)"/>
      <use xlink:href="#DejaVuSans-65" transform="translate(375.732422 0.015625)"/>
      <use xlink:href="#DejaVuSans-20" transform="translate(437.255859 0.015625)"/>
      <use xlink:href="#DejaVuSans-66" transform="translate(469.042969 0.015625)"/>
      <use xlink:href="#DejaVuSans-72" transform="translate(504.248047 0.015625)"/>
      <use xlink:href="#DejaVuSans-6f" transform="translate(545.361328 0.015625)"/>
      <use xlink:href="#DejaVuSans-6d" transform="translate(606.542969 0.015625)"/>
      <use xlink:href="#DejaVuSans-20" transform="translate(703.955078 0.015625)"/>
      <use xlink:href="#DejaVuSans-73" transform="translate(735.742188 0.015625)"/>
      <use xlink:href="#DejaVuSans-68" transform="translate(787.841797 0.015625)"/>
      <use xlink:href="#DejaVuSans-6f" transform="translate(851.220703 0.015625)"/>
      <use xlink:href="#DejaVuSans-72" transform="translate(912.402344 0.015625)"/>
      <use xlink:href="#DejaVuSans-65" transform="translate(953.515625 0.015625)"/>
      <use xlink:href="#DejaVuSans-20" transform="translate(1015.039062 0.015625)"/>
      <use xlink:href="#DejaVuSans-Oblique-79" transform="translate(1046.826172 0.015625)"/>
     </g>
    </g>
   </g>
   <g id="patch_4">
    <path d="M 54 215.145 
L 54 39.375 
" style="fill: none; stroke: #000000; stroke-width: 0.8; stroke-linejoin: miter; stroke-linecap: square"/>
   </g>
   <g id="patch_5">
    <path d="M 388.8 215.145 
L 388.8 39.375 
" style="fill: none; stroke: #000000; stroke-width: 0.8; stroke-linejoin: miter; stroke-linecap: square"/>
   </g>
   <g id="patch_6">
    <path d="M 54 215.145 
L 388.8 215.145 
" style="fill: none; stroke: #000000; stroke-width: 0.8; stroke-linejoin: miter; stroke-linecap: square"/>
   </g>
   <g id="patch_7">
    <path d="M 54 39.375 
L 388.8 39.375 
" style="fill: none; stroke: #000000; stroke-width: 0.8; stroke-linejoin: miter; stroke-linecap: square"/>
   </g>
   <g id="patch_8">
    <path d="M 204.66 139.815 
L 238.14 139.815 
L 238.14 106.335 
L 204.66 106.335 
L 204.66 139.815 
z
M 89.78175 48.1635 
Q 147.220875 77.24925 204.66 106.335 
M 168.87825 127.26 
Q 203.509125 133.5375 238.14 139.815 
" style="fill: none; opacity: 0.5; stroke: #808080; stroke-linejoin: miter"/>
   </g>
   <g id="axes_2">
    <g id="patch_9">
     <path d="M 89.78175 127.26 
L 168.87825 127.26 
L 168.87825 48.1635 
L 89.78175 48.1635 
z
" style="fill: #ffffff"/>
    </g>
    <g id="QuadContourSet_2">
     <path d="M 123.367952 112.984148 
L 127.342651 113.84658 
L 131.317349 113.956447 
L 135.292048 113.307445 
L 138.170841 112.29526 
L 139.266746 111.858593 
L 141.788949 110.327784 
L 143.241445 109.320269 
L 144.277591 108.360309 
L 146.107412 106.392833 
L 147.216143 104.979368 
L 147.565109 104.425357 
L 148.573392 102.457881 
L 149.359616 100.490406 
L 149.925019 98.52293 
L 150.270869 96.555454 
L 150.398465 94.587978 
L 150.309133 92.620503 
L 150.004217 90.653027 
L 149.48508 88.685551 
L 148.753097 86.718075 
L 147.809654 84.7506 
L 147.216143 83.734519 
L 146.51573 82.783124 
L 144.813054 80.815648 
L 143.241445 79.235972 
L 142.723261 78.848172 
L 139.771295 76.880697 
L 139.266746 76.576896 
L 135.292048 74.987752 
L 134.919589 74.913221 
L 131.317349 74.249971 
L 127.342651 74.240882 
L 123.636385 74.913221 
L 123.367952 74.966583 
L 119.393254 76.573054 
L 118.892548 76.880697 
L 116.027759 78.848172 
L 115.418555 79.323597 
L 113.999454 80.815648 
L 112.393628 82.783124 
L 111.443857 84.175806 
L 111.133128 84.7506 
L 110.273881 86.718075 
L 109.626442 88.685551 
L 109.189612 90.653027 
L 108.962268 92.620503 
L 108.943361 94.587978 
L 109.131923 96.555454 
L 109.527069 98.52293 
L 110.128001 100.490406 
L 110.934008 102.457881 
L 111.443857 103.444881 
L 112.065598 104.425357 
L 113.573223 106.392833 
L 115.332667 108.360309 
L 115.418555 108.443393 
L 117.956265 110.327784 
L 119.393254 111.270582 
L 121.656282 112.29526 
z
" clip-path="url(#p0cc5db2316)" style="fill: #424086"/>
     <path d="M 123.367952 124.208917 
L 127.342651 124.721469 
L 131.317349 124.794585 
L 135.292048 124.427092 
L 136.907867 124.100115 
L 139.266746 123.582326 
L 143.241445 122.248559 
L 143.499133 122.132639 
L 147.216143 120.321232 
L 147.473181 120.165163 
L 150.452843 118.197687 
L 151.190842 117.66577 
L 152.86099 116.230212 
L 154.953372 114.262736 
L 155.16554 114.041483 
L 156.612196 112.29526 
L 158.078771 110.327784 
L 159.140239 108.725503 
L 159.353816 108.360309 
L 160.355801 106.392833 
L 161.218427 104.425357 
L 161.942353 102.457881 
L 162.528238 100.490406 
L 162.97674 98.52293 
L 163.114937 97.646583 
L 163.269328 96.555454 
L 163.425629 94.587978 
L 163.461487 92.620503 
L 163.377454 90.653027 
L 163.174073 88.685551 
L 163.114937 88.321932 
L 162.819295 86.718075 
L 162.324324 84.7506 
L 161.697116 82.783124 
L 160.938289 80.815648 
L 160.048452 78.848172 
L 159.140239 77.095197 
L 159.012368 76.880697 
L 157.699922 74.913221 
L 156.240405 72.945745 
L 155.16554 71.62547 
L 154.547133 70.978269 
L 152.50789 69.010794 
L 151.190842 67.833201 
L 150.125515 67.043318 
L 147.285199 65.075842 
L 147.216143 65.030799 
L 143.521579 63.108366 
L 143.241445 62.970437 
L 139.266746 61.500128 
L 137.822126 61.140891 
L 135.292048 60.540334 
L 131.317349 60.049708 
L 127.342651 60.009914 
L 123.367952 60.423714 
L 120.10889 61.140891 
L 119.393254 61.306756 
L 115.418555 62.721984 
L 114.618422 63.108366 
L 111.443857 64.739119 
L 110.926762 65.075842 
L 108.103681 67.043318 
L 107.469158 67.519715 
L 105.833233 69.010794 
L 103.853404 70.978269 
L 103.49446 71.367904 
L 102.261227 72.945745 
L 100.875709 74.913221 
L 99.644904 76.880697 
L 99.519761 77.107128 
L 98.685542 78.848172 
L 97.875541 80.815648 
L 97.198834 82.783124 
L 96.654857 84.7506 
L 96.243073 86.718075 
L 95.962975 88.685551 
L 95.814084 90.653027 
L 95.795953 92.620503 
L 95.908167 94.587978 
L 96.150343 96.555454 
L 96.522135 98.52293 
L 97.023232 100.490406 
L 97.65336 102.457881 
L 98.412283 104.425357 
L 99.299808 106.392833 
L 99.519761 106.81504 
L 100.426069 108.360309 
L 101.728714 110.327784 
L 103.177151 112.29526 
L 103.49446 112.68329 
L 104.977324 114.262736 
L 106.997659 116.230212 
L 107.469158 116.65008 
L 109.518487 118.197687 
L 111.443857 119.53924 
L 112.544576 120.165163 
L 115.418555 121.67403 
L 116.554511 122.132639 
L 119.393254 123.191486 
L 122.912214 124.100115 
z
M 121.656282 112.29526 
L 119.393254 111.270582 
L 117.956265 110.327784 
L 115.418555 108.443393 
L 115.332667 108.360309 
L 113.573223 106.392833 
L 112.065598 104.425357 
L 111.443857 103.444881 
L 110.934008 102.457881 
L 110.128001 100.490406 
L 109.527069 98.52293 
L 109.131923 96.555454 
L 108.943361 94.587978 
L 108.962268 92.620503 
L 109.189612 90.653027 
L 109.626442 88.685551 
L 110.273881 86.718075 
L 111.133128 84.7506 
L 111.443857 84.175806 
L 112.393628 82.783124 
L 113.999454 80.815648 
L 115.418555 79.323597 
L 116.027759 78.848172 
L 118.892548 76.880697 
L 119.393254 76.573054 
L 123.367952 74.966583 
L 123.636385 74.913221 
L 127.342651 74.240882 
L 131.317349 74.249971 
L 134.919589 74.913221 
L 135.292048 74.987752 
L 139.266746 76.576896 
L 139.771295 76.880697 
L 142.723261 78.848172 
L 143.241445 79.235972 
L 144.813054 80.815648 
L 146.51573 82.783124 
L 147.216143 83.734519 
L 147.809654 84.7506 
L 148.753097 86.718075 
L 149.48508 88.685551 
L 150.004217 90.653027 
L 150.309133 92.620503 
L 150.398465 94.587978 
L 150.270869 96.555454 
L 149.925019 98.52293 
L 149.359616 100.490406 
L 148.573392 102.457881 
L 147.565109 104.425357 
L 147.216143 104.979368 
L 146.107412 106.392833 
L 144.277591 108.360309 
L 143.241445 109.320269 
L 141.788949 110.327784 
L 139.266746 111.858593 
L 138.170841 112.29526 
L 135.292048 113.307445 
L 131.317349 113.956447 
L 127.342651 113.84658 
L 123.367952 112.984148 
z
" clip-path="url(#p0cc5db2316)" style="fill: #3fbc73"/>
    </g>
    <g id="PathCollection_3">
     <g clip-path="url(#p0cc5db2316)">
      <use xlink:href="#maaaf962027" x="129.33" y="87.71175" style="fill: #ff0000; stroke: #ff0000"/>
     </g>
    </g>
    <g id="PathCollection_4">
     <g clip-path="url(#p0cc5db2316)">
      <use xlink:href="#m3b61ea2619" x="129.658851" y="95.102835" style="fill: #00bfbf; stroke: #00bfbf"/>
     </g>
    </g>
    <g id="matplotlib.axis_3">
     <g id="xtick_10">
      <g id="line2d_16">
       <g>
        <use xlink:href="#m2d46a44ffe" x="89.78175" y="127.26" style="stroke: #000000; stroke-width: 0.8"/>
       </g>
      </g>
      <g id="text_18">
       <!-- −1 -->
       <g transform="translate(82.410656 141.858438) scale(0.1 -0.1)">
        <use xlink:href="#DejaVuSans-2212"/>
        <use xlink:href="#DejaVuSans-31" transform="translate(83.789062 0)"/>
       </g>
      </g>
     </g>
     <g id="xtick_11">
      <g id="line2d_17">
       <g>
        <use xlink:href="#m2d46a44ffe" x="129.33" y="127.26" style="stroke: #000000; stroke-width: 0.8"/>
       </g>
      </g>
      <g id="text_19">
       <!-- 0 -->
       <g transform="translate(126.14875 141.858438) scale(0.1 -0.1)">
        <use xlink:href="#DejaVuSans-30"/>
       </g>
      </g>
     </g>
     <g id="xtick_12">
      <g id="line2d_18">
       <g>
        <use xlink:href="#m2d46a44ffe" x="168.87825" y="127.26" style="stroke: #000000; stroke-width: 0.8"/>
       </g>
      </g>
      <g id="text_20">
       <!-- 1 -->
       <g transform="translate(165.697 141.858438) scale(0.1 -0.1)">
        <use xlink:href="#DejaVuSans-31"/>
       </g>
      </g>
     </g>
    </g>
    <g id="matplotlib.axis_4">
     <g id="ytick_7">
      <g id="line2d_19">
       <g>
        <use xlink:href="#m74561e899e" x="89.78175" y="127.26" style="stroke: #000000; stroke-width: 0.8"/>
       </g>
      </g>
      <g id="text_21">
       <!-- 4 -->
       <g transform="translate(76.41925 131.059219) scale(0.1 -0.1)">
        <use xlink:href="#DejaVuSans-34"/>
       </g>
      </g>
     </g>
     <g id="ytick_8">
      <g id="line2d_20">
       <g>
        <use xlink:href="#m74561e899e" x="89.78175" y="87.71175" style="stroke: #000000; stroke-width: 0.8"/>
       </g>
      </g>
      <g id="text_22">
       <!-- 5 -->
       <g transform="translate(76.41925 91.510969) scale(0.1 -0.1)">
        <use xlink:href="#DejaVuSans-35"/>
       </g>
      </g>
     </g>
     <g id="ytick_9">
      <g id="line2d_21">
       <g>
        <use xlink:href="#m74561e899e" x="89.78175" y="48.1635" style="stroke: #000000; stroke-width: 0.8"/>
       </g>
      </g>
      <g id="text_23">
       <!-- 6 -->
       <g transform="translate(76.41925 51.962719) scale(0.1 -0.1)">
        <use xlink:href="#DejaVuSans-36"/>
       </g>
      </g>
     </g>
    </g>
    <g id="patch_10">
     <path d="M 89.78175 127.26 
L 89.78175 48.1635 
" style="fill: none; stroke: #000000; stroke-width: 0.8; stroke-linejoin: miter; stroke-linecap: square"/>
    </g>
    <g id="patch_11">
     <path d="M 168.87825 127.26 
L 168.87825 48.1635 
" style="fill: none; stroke: #000000; stroke-width: 0.8; stroke-linejoin: miter; stroke-linecap: square"/>
    </g>
    <g id="patch_12">
     <path d="M 89.78175 127.26 
L 168.87825 127.26 
" style="fill: none; stroke: #000000; stroke-width: 0.8; stroke-linejoin: miter; stroke-linecap: square"/>
    </g>
    <g id="patch_13">
     <path d="M 89.78175 48.1635 
L 168.87825 48.1635 
" style="fill: none; stroke: #000000; stroke-width: 0.8; stroke-linejoin: miter; stroke-linecap: square"/>
    </g>
   </g>
   <g id="legend_1">
    <g id="patch_14">
     <path d="M 239.703125 91.409375 
L 381.8 91.409375 
Q 383.8 91.409375 383.8 89.409375 
L 383.8 46.375 
Q 383.8 44.375 381.8 44.375 
L 239.703125 44.375 
Q 237.703125 44.375 237.703125 46.375 
L 237.703125 89.409375 
Q 237.703125 91.409375 239.703125 91.409375 
z
" style="fill: #ffffff; opacity: 0.8; stroke: #cccccc; stroke-linejoin: miter"/>
    </g>
    <g id="patch_15">
     <path d="M 241.703125 55.973438 
L 261.703125 55.973438 
L 261.703125 48.973438 
L 241.703125 48.973438 
z
" style="fill: url(#hcc1dfdeffb); stroke: #000000; stroke-linejoin: miter"/>
    </g>
    <g id="text_24">
     <!-- Shoreline -->
     <g transform="translate(269.703125 55.973438) scale(0.1 -0.1)">
      <use xlink:href="#DejaVuSans-53"/>
      <use xlink:href="#DejaVuSans-68" transform="translate(63.476562 0)"/>
      <use xlink:href="#DejaVuSans-6f" transform="translate(126.855469 0)"/>
      <use xlink:href="#DejaVuSans-72" transform="translate(188.037109 0)"/>
      <use xlink:href="#DejaVuSans-65" transform="translate(226.900391 0)"/>
      <use xlink:href="#DejaVuSans-6c" transform="translate(288.423828 0)"/>
      <use xlink:href="#DejaVuSans-69" transform="translate(316.207031 0)"/>
      <use xlink:href="#DejaVuSans-6e" transform="translate(343.990234 0)"/>
      <use xlink:href="#DejaVuSans-65" transform="translate(407.369141 0)"/>
     </g>
    </g>
    <g id="PathCollection_5">
     <g>
      <use xlink:href="#maaaf962027" x="251.703125" y="68.026563" style="fill: #ff0000; stroke: #ff0000"/>
     </g>
    </g>
    <g id="text_25">
     <!-- Lighthouse (actual) -->
     <g transform="translate(269.703125 70.651563) scale(0.1 -0.1)">
      <defs>
       <path id="DejaVuSans-4c" d="M 628 4666 
L 1259 4666 
L 1259 531 
L 3531 531 
L 3531 0 
L 628 0 
L 628 4666 
z
" transform="scale(0.015625)"/>
       <path id="DejaVuSans-67" d="M 2906 1791 
Q 2906 2416 2648 2759 
Q 2391 3103 1925 3103 
Q 1463 3103 1205 2759 
Q 947 2416 947 1791 
Q 947 1169 1205 825 
Q 1463 481 1925 481 
Q 2391 481 2648 825 
Q 2906 1169 2906 1791 
z
M 3481 434 
Q 3481 -459 3084 -895 
Q 2688 -1331 1869 -1331 
Q 1566 -1331 1297 -1286 
Q 1028 -1241 775 -1147 
L 775 -588 
Q 1028 -725 1275 -790 
Q 1522 -856 1778 -856 
Q 2344 -856 2625 -561 
Q 2906 -266 2906 331 
L 2906 616 
Q 2728 306 2450 153 
Q 2172 0 1784 0 
Q 1141 0 747 490 
Q 353 981 353 1791 
Q 353 2603 747 3093 
Q 1141 3584 1784 3584 
Q 2172 3584 2450 3431 
Q 2728 3278 2906 2969 
L 2906 3500 
L 3481 3500 
L 3481 434 
z
" transform="scale(0.015625)"/>
       <path id="DejaVuSans-75" d="M 544 1381 
L 544 3500 
L 1119 3500 
L 1119 1403 
Q 1119 906 1312 657 
Q 1506 409 1894 409 
Q 2359 409 2629 706 
Q 2900 1003 2900 1516 
L 2900 3500 
L 3475 3500 
L 3475 0 
L 2900 0 
L 2900 538 
Q 2691 219 2414 64 
Q 2138 -91 1772 -91 
Q 1169 -91 856 284 
Q 544 659 544 1381 
z
M 1991 3584 
L 1991 3584 
z
" transform="scale(0.015625)"/>
       <path id="DejaVuSans-28" d="M 1984 4856 
Q 1566 4138 1362 3434 
Q 1159 2731 1159 2009 
Q 1159 1288 1364 580 
Q 1569 -128 1984 -844 
L 1484 -844 
Q 1016 -109 783 600 
Q 550 1309 550 2009 
Q 550 2706 781 3412 
Q 1013 4119 1484 4856 
L 1984 4856 
z
" transform="scale(0.015625)"/>
       <path id="DejaVuSans-29" d="M 513 4856 
L 1013 4856 
Q 1481 4119 1714 3412 
Q 1947 2706 1947 2009 
Q 1947 1309 1714 600 
Q 1481 -109 1013 -844 
L 513 -844 
Q 928 -128 1133 580 
Q 1338 1288 1338 2009 
Q 1338 2731 1133 3434 
Q 928 4138 513 4856 
z
" transform="scale(0.015625)"/>
      </defs>
      <use xlink:href="#DejaVuSans-4c"/>
      <use xlink:href="#DejaVuSans-69" transform="translate(55.712891 0)"/>
      <use xlink:href="#DejaVuSans-67" transform="translate(83.496094 0)"/>
      <use xlink:href="#DejaVuSans-68" transform="translate(146.972656 0)"/>
      <use xlink:href="#DejaVuSans-74" transform="translate(210.351562 0)"/>
      <use xlink:href="#DejaVuSans-68" transform="translate(249.560547 0)"/>
      <use xlink:href="#DejaVuSans-6f" transform="translate(312.939453 0)"/>
      <use xlink:href="#DejaVuSans-75" transform="translate(374.121094 0)"/>
      <use xlink:href="#DejaVuSans-73" transform="translate(437.5 0)"/>
      <use xlink:href="#DejaVuSans-65" transform="translate(489.599609 0)"/>
      <use xlink:href="#DejaVuSans-20" transform="translate(551.123047 0)"/>
      <use xlink:href="#DejaVuSans-28" transform="translate(582.910156 0)"/>
      <use xlink:href="#DejaVuSans-61" transform="translate(621.923828 0)"/>
      <use xlink:href="#DejaVuSans-63" transform="translate(683.203125 0)"/>
      <use xlink:href="#DejaVuSans-74" transform="translate(738.183594 0)"/>
      <use xlink:href="#DejaVuSans-75" transform="translate(777.392578 0)"/>
      <use xlink:href="#DejaVuSans-61" transform="translate(840.771484 0)"/>
      <use xlink:href="#DejaVuSans-6c" transform="translate(902.050781 0)"/>
      <use xlink:href="#DejaVuSans-29" transform="translate(929.833984 0)"/>
     </g>
    </g>
    <g id="PathCollection_6">
     <g>
      <use xlink:href="#m3b61ea2619" x="251.703125" y="82.704688" style="fill: #00bfbf; stroke: #00bfbf"/>
     </g>
    </g>
    <g id="text_26">
     <!-- Lighthouse (estimate) -->
     <g transform="translate(269.703125 85.329688) scale(0.1 -0.1)">
      <use xlink:href="#DejaVuSans-4c"/>
      <use xlink:href="#DejaVuSans-69" transform="translate(55.712891 0)"/>
      <use xlink:href="#DejaVuSans-67" transform="translate(83.496094 0)"/>
      <use xlink:href="#DejaVuSans-68" transform="translate(146.972656 0)"/>
      <use xlink:href="#DejaVuSans-74" transform="translate(210.351562 0)"/>
      <use xlink:href="#DejaVuSans-68" transform="translate(249.560547 0)"/>
      <use xlink:href="#DejaVuSans-6f" transform="translate(312.939453 0)"/>
      <use xlink:href="#DejaVuSans-75" transform="translate(374.121094 0)"/>
      <use xlink:href="#DejaVuSans-73" transform="translate(437.5 0)"/>
      <use xlink:href="#DejaVuSans-65" transform="translate(489.599609 0)"/>
      <use xlink:href="#DejaVuSans-20" transform="translate(551.123047 0)"/>
      <use xlink:href="#DejaVuSans-28" transform="translate(582.910156 0)"/>
      <use xlink:href="#DejaVuSans-65" transform="translate(621.923828 0)"/>
      <use xlink:href="#DejaVuSans-73" transform="translate(683.447266 0)"/>
      <use xlink:href="#DejaVuSans-74" transform="translate(735.546875 0)"/>
      <use xlink:href="#DejaVuSans-69" transform="translate(774.755859 0)"/>
      <use xlink:href="#DejaVuSans-6d" transform="translate(802.539062 0)"/>
      <use xlink:href="#DejaVuSans-61" transform="translate(899.951172 0)"/>
      <use xlink:href="#DejaVuSans-74" transform="translate(961.230469 0)"/>
      <use xlink:href="#DejaVuSans-65" transform="translate(1000.439453 0)"/>
      <use xlink:href="#DejaVuSans-29" transform="translate(1061.962891 0)"/>
     </g>
    </g>
   </g>
  </g>
 </g>
 <defs>
  <clipPath id="pe0a1db8be8">
   <rect x="54" y="39.375" width="334.8" height="175.77"/>
  </clipPath>
  <clipPath id="p0cc5db2316">
   <rect x="89.78175" y="48.1635" width="79.0965" height="79.0965"/>
  </clipPath>
 </defs>
 <defs>
  <pattern id="hcc1dfdeffb" patternUnits="userSpaceOnUse" x="0" y="0" width="72" height="72">
   <rect x="0" y="0" width="73" height="73" fill="none"/>
   <path d="M -36 36 
L 36 -36 
M -30 42 
L 42 -30 
M -24 48 
L 48 -24 
M -18 54 
L 54 -18 
M -12 60 
L 60 -12 
M -6 66 
L 66 -6 
M 0 72 
L 72 0 
M 6 78 
L 78 6 
M 12 84 
L 84 12 
M 18 90 
L 90 18 
M 24 96 
L 96 24 
M 30 102 
L 102 30 
M 36 108 
L 108 36 
" style="fill: #000000; stroke: #000000; stroke-width: 1.0; stroke-linecap: butt; stroke-linejoin: miter"/>
  </pattern>
 </defs>
</svg>
